<?xml version="1.0" encoding="UTF-8" standalone="no"?>
<!-- Created with Inkscape (http://www.inkscape.org/) -->

<svg
   xmlns:dc="http://purl.org/dc/elements/1.1/"
   xmlns:cc="http://creativecommons.org/ns#"
   xmlns:rdf="http://www.w3.org/1999/02/22-rdf-syntax-ns#"
   xmlns:svg="http://www.w3.org/2000/svg"
   xmlns="http://www.w3.org/2000/svg"
   xmlns:sodipodi="http://sodipodi.sourceforge.net/DTD/sodipodi-0.dtd"
   xmlns:inkscape="http://www.inkscape.org/namespaces/inkscape"
   width="100mm"
   height="100mm"
   viewBox="0 0 354.33071 354.33071"
   id="svg2"
   version="1.1"
   inkscape:version="0.91 r"
   sodipodi:docname="favicon.svg"
   inkscape:export-filename="/home/manuel/projekte/poke-wegschicker/icon/favicon_256.png"
   inkscape:export-xdpi="65.023994"
   inkscape:export-ydpi="65.023994">
  <defs
     id="defs4" />
  <sodipodi:namedview
     id="base"
     pagecolor="#ffffff"
     bordercolor="#666666"
     borderopacity="1.0"
     inkscape:pageopacity="0.0"
     inkscape:pageshadow="2"
     inkscape:zoom="1.979899"
     inkscape:cx="16.398954"
     inkscape:cy="126.47952"
     inkscape:document-units="px"
     inkscape:current-layer="layer1"
     showgrid="false"
     inkscape:window-width="2560"
     inkscape:window-height="1350"
     inkscape:window-x="0"
     inkscape:window-y="0"
     inkscape:window-maximized="1"
     fit-margin-left="2"
     fit-margin-top="2"
     fit-margin-bottom="2"
     fit-margin-right="2" />
  <metadata
     id="metadata7">
    <rdf:RDF>
      <cc:Work
         rdf:about="">
        <dc:format>image/svg+xml</dc:format>
        <dc:type
           rdf:resource="http://purl.org/dc/dcmitype/StillImage" />
        <dc:title></dc:title>
      </cc:Work>
    </rdf:RDF>
  </metadata>
  <g
     inkscape:label="Ebene 1"
     inkscape:groupmode="layer"
     id="layer1"
     transform="translate(-156.91707,-46.546913)">
    <circle
       style="fill:#ffffff;fill-opacity:1;stroke:#000000;stroke-width:11.63517189;stroke-miterlimit:4;stroke-dasharray:none;stroke-opacity:1"
       id="path4136"
       cx="333.09924"
       cy="-219.56396"
       r="140.03758"
       transform="scale(1,-1)" />
    <path
       style="fill:#ff0000;fill-opacity:1;stroke:#000000;stroke-width:11.63517189;stroke-miterlimit:4;stroke-dasharray:none;stroke-opacity:1"
       d="m 193.29179,224.134 a 140.03759,140.03759 0 0 1 -0.22953,-4.57 A 140.03759,140.03759 0 0 1 333.10019,79.526088 140.03759,140.03759 0 0 1 473.13582,219.564 a 140.03759,140.03759 0 0 1 -0.16135,4.57 l -279.68268,0 z"
       id="circle4138"
       inkscape:connector-curvature="0" />
    <circle
       transform="scale(1,-1)"
       id="circle4143"
       style="fill:#ffffff;fill-opacity:1;stroke:#000000;stroke-width:11.63517189;stroke-miterlimit:4;stroke-dasharray:none;stroke-opacity:1"
       r="31.165632"
       cy="-219.56396"
       cx="333.09924" />
    <g
       id="g4223"
       transform="matrix(1.149753,0,0,1.2346375,1024.6679,84.314763)">
      <path
         style="fill:#ffffff;fill-opacity:1;fill-rule:evenodd;stroke:none;stroke-width:7.09617043;stroke-linecap:butt;stroke-linejoin:miter;stroke-miterlimit:4;stroke-dasharray:none;stroke-opacity:1"
         d="m -548.2522,162.6896 c 0,0 -65.40215,16.91999 -85.07476,12.34134 -19.67261,-4.57864 -32.61785,-13.96275 -44.91427,-15.88585 -21.50433,-3.36318 -46.59628,-2.10262 -46.59628,-2.10262 l 0.55142,-64.129816 c 0,0 21.7865,0.0809 45.01812,-10.81878 23.23161,-10.89971 38.26094,-32.58673 66.37183,-32.02203 19.03086,0.3823 58.78745,21.59583 64.24223,46.5204 1.95099,8.914776 -13.28932,15.881906 -22.78806,14.909586 -15.58916,-1.59575 -42.86017,-27.298286 -42.86017,-27.298286"
         id="path4213"
         inkscape:connector-curvature="0"
         sodipodi:nodetypes="cssccssssc" />
      <rect
         transform="matrix(0.98512653,-0.17183052,0.16149781,0.98687307,0,0)"
         rx="21.574385"
         ry="0"
         y="46.923447"
         x="-634.0495"
         height="34.641064"
         width="86.096626"
         id="rect4139"
         style="fill:#ffffff;fill-opacity:1;stroke:#000000;stroke-width:7.09636545;stroke-miterlimit:4;stroke-dasharray:none;stroke-opacity:1" />
      <rect
         style="fill:#ffffff;fill-opacity:1;stroke:#000000;stroke-width:7.09624338;stroke-miterlimit:4;stroke-dasharray:none;stroke-opacity:1"
         id="rect4145"
         width="101.68543"
         height="40.458752"
         x="-643.1665"
         y="-9.6113834"
         ry="0"
         rx="25.48068"
         transform="matrix(0.97600115,-0.21776539,0.21150373,0.97737719,0,0)" />
      <path
         style="fill:#ffffff;fill-opacity:1;stroke:#000000;stroke-width:7.09617043;stroke-miterlimit:4;stroke-dasharray:none;stroke-opacity:1"
         d="m -552.23757,89.647884 2.46656,-0.24636 c 7.14523,-0.71368 16.61705,4.01701 18.97259,14.367646 2.35556,10.35066 -6.12837,21.1735 -19.02222,24.26648 l -52.44332,12.5801 c -12.89387,3.09298 -25.17046,-2.74984 -27.52601,-13.10048 -2.35555,-10.35065 6.10385,-21.27759 19.02223,-24.26648 l 17.16137,-3.724026"
         id="rect4147"
         inkscape:connector-curvature="0"
         sodipodi:nodetypes="cssssssc" />
      <path
         sodipodi:nodetypes="ccsssc"
         inkscape:connector-curvature="0"
         id="rect4151"
         d="m -599.17043,53.018044 4.42466,0.79652 104.89894,-3.0134 c 20.69721,-0.59456 37.53453,7.25778 37.74289,17.21424 0.20836,9.95648 -16.2895,18.30993 -36.99069,18.72971 l -65.812,0.72745"
         style="fill:#ffffff;fill-opacity:1;stroke:#000000;stroke-width:6.9856267;stroke-miterlimit:4;stroke-dasharray:none;stroke-opacity:1" />
      <path
         sodipodi:nodetypes="cssccssssc"
         inkscape:connector-curvature="0"
         id="path4176"
         d="m -612.53791,177.51103 c 0,0 -1.11644,2.09856 -20.78905,-2.48009 -19.67261,-4.57864 -32.61785,-13.96275 -44.91427,-15.88585 -21.50433,-3.36318 -46.59628,-2.10262 -46.59628,-2.10262 l 0.55142,-64.129816 c 0,0 21.7865,0.0809 45.01812,-10.81878 23.23161,-10.89971 38.26094,-32.58673 66.37183,-32.02203 19.03086,0.3823 58.78745,21.59583 64.24223,46.5204 1.95099,8.914776 -13.28932,15.881906 -22.78806,14.909586 -15.58916,-1.59575 -42.86017,-27.298286 -42.86017,-27.298286"
         style="fill:#ffffff;fill-opacity:0;fill-rule:evenodd;stroke:#000000;stroke-width:7.09617043;stroke-linecap:butt;stroke-linejoin:miter;stroke-miterlimit:4;stroke-dasharray:none;stroke-opacity:1" />
      <rect
         ry="0"
         y="59.774166"
         x="-746.77356"
         height="124.43641"
         width="42.577"
         id="rect4190"
         style="fill:#ffffff;fill-opacity:1;stroke:#000000;stroke-width:7.09617043;stroke-miterlimit:4;stroke-dasharray:none;stroke-opacity:1" />
      <rect
         y="61.801662"
         x="-746.26672"
         height="120.88833"
         width="15.459505"
         id="rect4194"
         style="fill:#000000;fill-opacity:1;stroke:#000000;stroke-width:7.09617043;stroke-miterlimit:4;stroke-dasharray:none;stroke-opacity:1" />
    </g>
  </g>
</svg>
